<?xml version="1.0" encoding="UTF-8" standalone="no"?>
<!DOCTYPE svg PUBLIC "-//W3C//DTD SVG 1.1//EN" "http://www.w3.org/Graphics/SVG/1.1/DTD/svg11.dtd">
<svg width="100%" height="100%" viewBox="0 0 640 480" version="1.1" xmlns="http://www.w3.org/2000/svg" xmlns:xlink="http://www.w3.org/1999/xlink" xml:space="preserve" xmlns:serif="http://www.serif.com/" style="fill-rule:evenodd;clip-rule:evenodd;stroke-linecap:round;stroke-linejoin:round;stroke-miterlimit:10;">
    <g id="Layer-1" serif:id="Layer 1" transform="matrix(1,0,0,1,0,-572.362)">
        <rect id="rect3328" x="0" y="572.362" width="640" height="480"/>
        <g transform="matrix(0.857971,0,0,0.857968,119.362,584.863)">
            <g id="text3002">
                <text x="85px" y="5px" style="font-family:'Arial-BoldMT', 'Arial', sans-serif;font-weight:700;font-size:20px;fill:white;">eReuse.org Workbench Live</text>
            </g>
        </g>
        <g transform="matrix(1,0,0,1,205,25)">
            <g transform="matrix(1,0,0,1,-46.7976,469.416)">
                <path d="M62.043,298.631C86.801,220.582 137.305,256.941 203.791,237.55C312.364,205.884 203.469,64.893 110.665,138.609C16.782,213.181 87.627,368.592 231.386,278.425" style="fill:none;stroke:rgb(47,46,47);stroke-width:27.78px;"/>
            </g>
            <g transform="matrix(1,0,0,1,-46.7976,469.416)">
                <path d="M57.816,314.495C83.456,217.718 134.859,243.961 192.455,246.73C278.634,250.874 248.148,126.816 191.6,112.356C160.336,104.362 112.14,115.296 83.286,159.714C33.861,235.799 92.945,309.024 146.304,308.681C175.674,308.492 199.892,294.832 236.973,273.079" style="fill:none;stroke:rgb(191,255,0);stroke-width:1.78px;"/>
            </g>
            <g transform="matrix(1,0,0,1,-46.7976,469.416)">
                <path d="M238.838,273.178C217.184,285.829 193.869,297.816 169.637,302.035C144.71,306.374 119.991,299.442 100.336,283.029C81.637,267.415 64.524,245.219 72.284,212.22C82.056,170.663 106.576,133.996 146.882,119.919C205.055,99.603 259.029,135.103 240.957,210.066C233.111,242.613 162.34,246.944 130.433,251.711C65.325,261.438 65.921,285.317 51.119,317.061" style="fill:none;stroke:rgb(191,255,0);stroke-width:1.78px;"/>
            </g>
            <g transform="matrix(1,0,0,1,-46.7976,469.416)">
                <path d="M237.583,272.729C164.798,326.842 83.683,291.179 70.026,239.033C33.188,98.378 257.41,84.11 248.507,203.59C244.405,258.632 74.384,201.751 49.798,308.681" style="fill:none;stroke:rgb(191,255,0);stroke-width:1.78px;"/>
            </g>
            <g transform="matrix(1,0,0,1,-46.7976,469.416)">
                <path d="M245.284,249.252L262.628,280.802L222.431,304.551C222.431,304.551 216.064,308.92 212.588,303.681C209.108,298.435 203.022,287.881 200.091,281.552C197.854,276.719 204.163,273.721 204.163,273.721L245.284,249.252Z" style="fill:rgb(47,46,47);fill-rule:nonzero;"/>
            </g>
            <g transform="matrix(1,0,0,1,-46.7976,469.416)">
                <path d="M260.902,274.003L248.506,252.125L260.536,245.309L272.932,267.187L260.902,274.003Z" style="fill:rgb(47,46,47);fill-rule:nonzero;"/>
            </g>
            <g transform="matrix(1,0,0,1,-46.7976,469.416)">
                <path d="M260.172,251.711L253.853,255.449" style="fill:none;stroke:rgb(191,255,0);stroke-width:1.59px;stroke-linejoin:miter;"/>
            </g>
            <g transform="matrix(1,0,0,1,-46.7976,469.416)">
                <path d="M267.166,264.559L260.847,268.297" style="fill:none;stroke:rgb(191,255,0);stroke-width:1.59px;stroke-linejoin:miter;"/>
            </g>
            <g transform="matrix(1,0,0,1,-46.7976,469.416)">
                <path d="M260.926,256.941L256.328,259.661" style="fill:none;stroke:rgb(191,255,0);stroke-width:1.59px;stroke-linejoin:miter;"/>
            </g>
            <g transform="matrix(1,0,0,1,-46.7976,469.416)">
                <path d="M263.462,261.062L258.864,263.782" style="fill:none;stroke:rgb(191,255,0);stroke-width:1.59px;stroke-linejoin:miter;"/>
            </g>
        </g>
    </g>
</svg>
